<?xml version="1.0" encoding="utf-8"?>
<svg viewBox="0 0 108 42" xmlns="http://www.w3.org/2000/svg">
  <defs>
    <clipPath id="f3df1009e3">
      <path d="M 142 170 L 186 170 L 186 345.445312 L 142 345.445312 Z M 142 170 " clip-rule="nonzero"/>
    </clipPath>
    <clipPath id="c346f5685a">
      <path d="M 42.355469 14.695312 L 281 14.695312 L 281 199 L 42.355469 199 Z M 42.355469 14.695312 " clip-rule="nonzero"/>
    </clipPath>
    <clipPath id="f528af7eb3">
      <path d="M 93 18 L 331.855469 18 L 331.855469 335 L 93 335 Z M 93 18 " clip-rule="nonzero"/>
    </clipPath>
    <style>
		tspan { white-space:pre } 
		.t0 { font-size: 17px;fill: #ffffff;font-weight: 700;font-family: "Poppins-Bold", "Poppins" } 
	</style>
  </defs>
  <text id=" Timetap" style="white-space: pre;" x="39.21" y="0.459" transform="matrix(0.9386570453643799, 0, 0, 0.9435070753097534, -7.171544075012207, 20.15866661071778)"><tspan x="39.209999084472656" dy="1em">​</tspan>		<tspan x="39.21" y="0.459" class="t0" style="font-size: 19.7px; word-spacing: 0px;"> TimeTap</tspan><tspan x="39.209999084472656" dy="1em">​</tspan></text>
  <g clip-path="url(#f3df1009e3)" transform="matrix(0.07873701304197311, 0, 0, 0.07923201471567154, -0.7406749725341797, 6.537467002868652)" style="">
    <path fill="#00bf63" d="M 142.351562 189.253906 L 142.351562 345.226562 L 185.878906 326.402344 L 185.878906 170.199219 Z M 142.351562 189.253906 " fill-opacity="1" fill-rule="nonzero"/>
  </g>
  <g clip-path="url(#c346f5685a)" transform="matrix(0.07873701304197311, 0, 0, 0.07923201471567154, -0.7406749725341797, 6.537467002868652)" style="">
    <path fill="#00bf63" d="M 278.113281 34.308594 L 280.789062 14.722656 L 42.355469 115.742188 L 42.355469 198.304688 L 85.882812 179.28125 L 85.882812 115.742188 Z M 278.113281 34.308594 " fill-opacity="1" fill-rule="nonzero"/>
  </g>
  <g clip-path="url(#f528af7eb3)" transform="matrix(0.07873701304197311, 0, 0, 0.07923201471567154, -0.7406749725341797, 6.537467002868652)" style="">
    <path fill="#00bf63" d="M 285.808594 38.535156 L 93.574219 119.972656 L 93.574219 202.53125 L 149.519531 178.09375 L 193.042969 159.039062 L 193.042969 334.066406 L 263.746094 303.484375 L 263.746094 128.128906 L 320.449219 103.328125 L 332.007812 18.949219 Z M 285.808594 38.535156 " fill-opacity="1" fill-rule="nonzero"/>
  </g>
</svg>